<svg width="279" height="279" viewBox="0 0 279 279" fill="none" xmlns="http://www.w3.org/2000/svg">
<path d="M98.8125 23.25H180.188C189.437 23.25 198.308 26.9243 204.848 33.4647C211.388 40.005 215.062 48.8756 215.062 58.125V255.75H63.9375V58.125C63.9375 48.8756 67.6118 40.005 74.1522 33.4647C80.6925 26.9243 89.5631 23.25 98.8125 23.25V23.25ZM87.1875 232.5H191.812V58.125C191.812 55.0419 190.588 52.085 188.408 49.9049C186.228 47.7248 183.271 46.5 180.188 46.5H98.8125C95.7294 46.5 92.7725 47.7248 90.5924 49.9049C88.4123 52.085 87.1875 55.0419 87.1875 58.125V232.5ZM110.438 69.75H122.062C125.146 69.75 128.103 70.9748 130.283 73.1549C132.463 75.335 133.688 78.2919 133.688 81.375C133.688 84.4581 132.463 87.415 130.283 89.5951C128.103 91.7752 125.146 93 122.062 93H110.438C107.354 93 104.397 91.7752 102.217 89.5951C100.037 87.415 98.8125 84.4581 98.8125 81.375C98.8125 78.2919 100.037 75.335 102.217 73.1549C104.397 70.9748 107.354 69.75 110.438 69.75V69.75ZM110.438 104.625H122.062C125.146 104.625 128.103 105.85 130.283 108.03C132.463 110.21 133.688 113.167 133.688 116.25C133.688 119.333 132.463 122.29 130.283 124.47C128.103 126.65 125.146 127.875 122.062 127.875H110.438C107.354 127.875 104.397 126.65 102.217 124.47C100.037 122.29 98.8125 119.333 98.8125 116.25C98.8125 113.167 100.037 110.21 102.217 108.03C104.397 105.85 107.354 104.625 110.438 104.625V104.625ZM110.438 139.5H122.062C125.146 139.5 128.103 140.725 130.283 142.905C132.463 145.085 133.688 148.042 133.688 151.125C133.688 154.208 132.463 157.165 130.283 159.345C128.103 161.525 125.146 162.75 122.062 162.75H110.438C107.354 162.75 104.397 161.525 102.217 159.345C100.037 157.165 98.8125 154.208 98.8125 151.125C98.8125 148.042 100.037 145.085 102.217 142.905C104.397 140.725 107.354 139.5 110.438 139.5V139.5ZM110.438 174.375H122.062C125.146 174.375 128.103 175.6 130.283 177.78C132.463 179.96 133.688 182.917 133.688 186C133.688 189.083 132.463 192.04 130.283 194.22C128.103 196.4 125.146 197.625 122.062 197.625H110.438C107.354 197.625 104.397 196.4 102.217 194.22C100.037 192.04 98.8125 189.083 98.8125 186C98.8125 182.917 100.037 179.96 102.217 177.78C104.397 175.6 107.354 174.375 110.438 174.375V174.375ZM156.938 69.75H168.562C171.646 69.75 174.603 70.9748 176.783 73.1549C178.963 75.335 180.188 78.2919 180.188 81.375C180.188 84.4581 178.963 87.415 176.783 89.5951C174.603 91.7752 171.646 93 168.562 93H156.938C153.854 93 150.897 91.7752 148.717 89.5951C146.537 87.415 145.312 84.4581 145.312 81.375C145.312 78.2919 146.537 75.335 148.717 73.1549C150.897 70.9748 153.854 69.75 156.938 69.75V69.75ZM156.938 104.625H168.562C171.646 104.625 174.603 105.85 176.783 108.03C178.963 110.21 180.188 113.167 180.188 116.25C180.188 119.333 178.963 122.29 176.783 124.47C174.603 126.65 171.646 127.875 168.562 127.875H156.938C153.854 127.875 150.897 126.65 148.717 124.47C146.537 122.29 145.312 119.333 145.312 116.25C145.312 113.167 146.537 110.21 148.717 108.03C150.897 105.85 153.854 104.625 156.938 104.625V104.625ZM156.938 139.5H168.562C171.646 139.5 174.603 140.725 176.783 142.905C178.963 145.085 180.188 148.042 180.188 151.125C180.188 154.208 178.963 157.165 176.783 159.345C174.603 161.525 171.646 162.75 168.562 162.75H156.938C153.854 162.75 150.897 161.525 148.717 159.345C146.537 157.165 145.312 154.208 145.312 151.125C145.312 148.042 146.537 145.085 148.717 142.905C150.897 140.725 153.854 139.5 156.938 139.5ZM156.938 174.375H168.562C171.646 174.375 174.603 175.6 176.783 177.78C178.963 179.96 180.188 182.917 180.188 186C180.188 189.083 178.963 192.04 176.783 194.22C174.603 196.4 171.646 197.625 168.562 197.625H156.938C153.854 197.625 150.897 196.4 148.717 194.22C146.537 192.04 145.312 189.083 145.312 186C145.312 182.917 146.537 179.96 148.717 177.78C150.897 175.6 153.854 174.375 156.938 174.375ZM122.062 209.25H156.938C160.021 209.25 162.978 210.475 165.158 212.655C167.338 214.835 168.562 217.792 168.562 220.875V232.5H110.438V220.875C110.438 217.792 111.662 214.835 113.842 212.655C116.022 210.475 118.979 209.25 122.062 209.25Z" fill="#3282B8"/>
</svg>
