<svg width="384" height="384" viewBox="0 0 384 384" fill="none" xmlns="http://www.w3.org/2000/svg">
<path d="M192 220.8C241.8 220.8 282 180.6 282 130.8C282 81 241.8 40.8 192 40.8C142.2 40.8 102 81 102 130.8C102 180.6 142.2 220.8 192 220.8ZM192 67.8C226.8 67.8 255 96 255 130.8C255 165.6 226.8 193.8 192 193.8C157.2 193.8 129 165.6 129 130.8C129 96 157.2 67.8 192 67.8Z" fill="#3282B8"/>
<path d="M369 319.2C319.8 277.8 257.4 255 192 255C126.6 255 64.1999 277.8 14.9999 319.2C9.59989 324 8.39989 332.4 13.1999 338.4C17.9999 343.8 26.3999 345 32.3999 340.2C76.7999 302.4 133.2 282 192 282C250.8 282 307.2 302.4 351 339.6C353.4 342 356.4 342.6 360 342.6C363.6 342.6 367.8 340.8 370.2 337.8C375 332.4 374.4 324 369 319.2Z" fill="#3282B8"/>
</svg>
